<?xml version="1.0" encoding="UTF-8" standalone="no"?><!DOCTYPE svg PUBLIC "-//W3C//DTD SVG 1.1//EN" "http://www.w3.org/Graphics/SVG/1.1/DTD/svg11.dtd"><svg width="100%" height="100%" viewBox="0 0 1682 746" version="1.1" xmlns="http://www.w3.org/2000/svg" xmlns:xlink="http://www.w3.org/1999/xlink" xml:space="preserve" xmlns:serif="http://www.serif.com/" style="fill-rule:evenodd;clip-rule:evenodd;stroke-linejoin:round;stroke-miterlimit:2;"><path d="M1383.2,320.751l-0.322,-0.034c-12.598,-24.828 -31.157,-42.901 -31.617,-80.57c-1.04,-85.335 67.898,-99.881 67.898,-99.881c-6.901,-4.322 -22.164,-23.988 -57.605,-22.958c-10.53,0.306 -26.251,6.082 -35.51,11.561c-9.259,5.48 -22.452,20.348 -28.904,26.427c-6.452,6.078 -16.649,13.292 -33.033,15.69c-16.383,2.399 -18.994,-9.91 -18.994,-9.91c9.32,8.524 25.19,0.481 33.859,-6.606c8.669,-7.087 12.781,-13.54 22.297,-24.775c9.516,-11.235 18.824,-21.084 28.078,-25.6c9.254,-4.516 20.017,-7.968 41.291,-8.259c21.274,-0.29 44.595,6.607 44.595,6.607c-4.756,-5.124 -15.046,-15.394 -23.949,-20.646c-8.903,-5.251 -27.112,-15.984 -40.465,-18.168c-15.285,-2.499 -37.162,8.259 -37.162,8.259c5.731,-8.561 11.917,-14.684 20.645,-17.343c8.728,-2.658 17.817,-5.52 33.859,-1.651c16.042,3.868 28.978,8.681 42.943,16.516c13.491,7.569 32.56,25.961 38.813,32.207c6.254,6.246 23.123,9.91 23.123,9.91c-6.459,-13.44 -30.244,-24.798 -42.942,-35.51c-9.635,-8.127 -12.766,-10.778 -16.517,-23.949c-3.899,-13.692 -0.826,-31.381 -0.826,-31.381c0.803,15.568 7.807,30.921 17.343,40.465c9.535,9.544 27.252,18.994 27.252,18.994c-8.124,-7.334 -16.86,-21.197 -20.646,-37.162c-6.932,-29.232 4.955,-42.117 4.955,-42.117c-4.734,24.344 1.652,40.465 1.652,40.465c-0.64,-9.558 4.129,-16.516 4.129,-16.516c-0.206,17.366 9.137,35.293 19.82,43.768c10.292,8.167 13.854,15.165 20.645,24.775c6.792,9.61 17.027,21.526 24.775,28.078c7.748,6.552 29.272,22.576 39.639,31.381c10.368,8.805 32.208,35.511 32.208,35.511c8.568,1.413 22.805,5.779 34.684,10.735c12.869,5.37 24.76,15.258 28.904,17.343c4.144,2.085 6.187,1.18 7.432,-0.826c1.246,-2.006 -3.11,-11.591 -8.258,-21.472c-5.147,-9.881 -20.211,-27.278 -37.162,-44.594c-16.748,-17.265 -22.25,-20.886 -41.291,-34.685c-11.707,-8.483 -23.123,-23.948 -23.123,-23.948c15.814,6.845 48.254,28.773 63.588,39.639c15.334,10.866 50.375,56.156 50.375,56.156c-0.938,-20.901 -18.575,-50.556 -27.252,-61.937c-8.677,-11.381 -24.755,-26.212 -37.988,-36.336c-13.232,-10.124 -49.549,-28.078 -49.549,-28.078c15.705,0.54 39.537,8.931 56.982,18.168c17.445,9.238 26.749,17.882 40.465,33.859c13.716,15.977 23.734,37.256 28.904,56.982c5.17,19.725 4.129,60.285 4.129,60.285c14.465,4.967 -3.303,26.426 -3.303,26.426c2.839,16.471 -9.084,25.601 -9.084,25.601c-0.601,14.566 -9.084,17.342 -9.084,17.342c1.564,-6.201 -0.826,-9.91 -0.826,-9.91c-4.772,5.24 -14.039,4.129 -14.039,4.129c-0.789,4.274 -0.13,5.439 -3.303,9.084c-3.174,3.645 -10.736,5.781 -10.736,5.781c6.657,-6.756 5.781,-15.691 5.781,-15.691c-0,0 -4.499,-1.404 -8.259,-4.129c-3.41,-2.472 -7.432,-5.781 -7.432,-5.781c-5.683,2.881 -9.91,1.652 -9.91,1.652c4.381,-2.126 4.129,-7.432 4.129,-7.432c0,-0 -10.735,-6.056 -14.039,-9.084c-3.303,-3.028 -9.91,-9.084 -9.91,-9.084c-4.074,3.726 -7.432,3.303 -7.432,3.303c2.038,-3.761 -0.826,-8.258 -0.826,-8.258c0,-0 -7.411,-3.937 -11.561,-5.781c-4.151,-1.844 -8.706,-5.273 -15.691,-6.607c-6.985,-1.333 -7.982,3.171 -6.607,5.781c1.224,2.322 4.955,5.781 4.955,5.781c0,-0 4.275,0.447 7.433,-0c3.158,-0.448 4.129,-1.652 4.129,-1.652c0.17,3.915 -0.826,7.433 -0.826,7.433c4.395,0.512 10.757,3.964 14.865,6.606c4.107,2.642 8.258,12.387 8.258,12.387c0,0 1.832,0.891 6.607,0c4.774,-0.89 5.78,-0.825 5.78,-0.825c0.549,5.607 -4.955,9.084 -4.955,9.084c0,-0 4.086,2.856 8.259,6.606c4.173,3.751 5.78,8.259 5.78,8.259c2.096,2.106 2.818,2.126 6.607,-0c4.878,-2.739 5.781,-4.955 5.781,-4.955c1.046,4.357 -2.478,13.213 -2.478,13.213c2.825,1.614 5.067,6.457 5.781,11.561c0.714,5.105 -4.121,7.63 -7.432,11.562c-3.311,3.931 -2.25,12.569 -4.955,21.471c-2.706,8.902 -12.719,19.437 -13.213,25.601c-0.494,6.163 3.005,9.261 4.955,19.819c1.949,10.559 -0.826,23.124 -0.826,23.124c-0,-0 -1.662,-12.159 -3.304,-20.646c-1.641,-8.487 -8.582,-11.243 -11.561,-17.342c-2.979,-6.1 -2.581,-6.814 -5.781,-15.691c-3.2,-8.877 -3.795,-20.359 -4.129,-31.381c-0.334,-11.023 -5.781,-14.865 -5.781,-14.865c-5.218,-1.853 -18.457,-9.588 -26.426,-15.691c-7.247,-5.549 -13.375,-11.691 -20.646,-18.168c-7.271,-6.476 -21.721,-9.522 -21.721,-9.522c0,0 17.491,30.68 32.437,57.219l0.166,0.086c-0,0 68.148,138.404 82.808,179.126c14.66,40.722 17.375,61.355 -4.887,129.769c-22.261,68.413 -91.218,100.991 -91.218,100.991c19.547,-14.117 37.465,-43.98 37.465,-43.98c-20.633,16.289 -85.789,30.949 -123.796,32.035c-38.008,1.086 -117.281,-7.601 -99.363,-8.144c17.918,-0.543 38.007,-3.801 38.007,-3.801c-56.468,-3.258 -102.077,-21.176 -163.432,-47.781c-61.355,-26.605 -77.644,-67.328 -77.644,-67.328c47.238,51.039 115.651,71.129 115.651,71.129c-37.464,-16.289 -85.788,-58.641 -103.163,-81.445c-17.375,-22.805 -23.891,-44.523 -47.781,-84.16c-23.891,-39.636 -58.097,-91.218 -92.847,-140.085c-34.75,-48.867 -49.41,-63.527 -120.539,-102.078c-71.128,-38.55 -130.854,-18.46 -151.487,-8.144c-23.036,11.518 -49.41,45.066 -70.586,74.386c-21.175,29.32 -52.124,99.363 -71.671,133.57c-19.547,34.207 -54.223,73.259 -100.992,125.425c-42.351,47.238 -74.929,67.871 -137.37,99.906c-58.431,29.977 -137.371,26.605 -137.371,26.605c46.153,-0 91.219,-24.976 91.219,-24.976c-41.809,15.203 -99.906,17.374 -149.859,14.66c-38.763,-2.107 -81.123,-31.679 -98.157,-44.822c-2.582,-1.91 -5.161,-3.977 -7.721,-6.217c-0,-0 2.806,2.424 7.721,6.217c28.028,20.738 55.806,22.56 55.806,22.56c-50.434,-16.811 -89.575,-59.974 -103.567,-77.051c-2.155,-2.309 -4.032,-4.682 -5.569,-7.109c-0,0 1.937,2.676 5.569,7.109c26.825,28.741 97.051,48.274 97.051,48.274c-42.351,-14.66 -77.644,-53.211 -77.644,-53.211c26.605,28.777 103.164,36.379 141.714,35.293c38.551,-1.086 87.418,-13.574 119.453,-37.465c32.035,-23.89 83.616,-80.902 103.163,-105.335c19.547,-24.434 61.355,-92.304 74.386,-116.195c13.032,-23.89 54.84,-105.878 54.84,-105.878c-29.32,28.234 -79.816,131.941 -79.816,131.941c11.945,-53.211 59.726,-124.34 59.726,-124.34c0,0 57.012,-81.444 109.136,-126.511c52.125,-45.066 126.511,-61.898 167.777,-68.413c41.265,-6.516 143.343,13.031 143.343,13.031c-60.269,-28.234 -118.91,-25.52 -167.777,-19.547c-51.877,6.341 -136.827,62.441 -136.827,62.441c54.297,-56.468 133.57,-71.128 133.57,-71.128c-0,-0 99.362,-23.348 210.127,27.691c110.765,51.039 225.134,217.492 225.134,217.492c-3.909,-14.768 -42.569,-67.762 -56.469,-86.005c-13.899,-18.244 -82.965,-82.531 -99.471,-95.128c-16.506,-12.597 -133.787,-95.996 -133.787,-95.996c23.022,8.687 135.09,86.44 160.284,106.421c25.193,19.981 86.874,86.006 104.249,107.724c17.375,21.719 57.338,96.431 65.591,113.806c8.253,17.375 11.13,28.479 55.246,82.097c44.116,53.617 76.016,65.155 147.28,64.477c71.264,-0.679 55.844,-45.615 55.844,-45.615c-1.602,12.633 -9.252,19.571 -16.903,22.952c-7.65,3.38 -20.994,7.117 -39.498,2.847c-18.503,-4.27 -31.847,-16.547 -42.344,-29.357c-10.715,-13.076 -12.099,-43.59 -12.099,-43.59c6.049,24.019 18.148,34.694 23.307,38.608c5.16,3.914 25.087,13.166 35.228,16.369c10.142,3.202 20.817,-0.356 26.332,-5.338c5.516,-4.982 3.203,-19.037 -1.245,-39.676c-4.448,-20.638 -33.093,-72.057 -33.093,-72.057c2.491,22.774 -6.049,54.265 -6.049,54.265c-0,0 -0.534,-32.025 -1.601,-47.504c-1.068,-15.479 -11.921,-40.566 -11.921,-40.566c0,0 6.405,26.688 4.804,46.081c-1.601,19.394 -9.608,29.001 -9.608,29.001c0,0 1.601,-6.583 2.847,-24.019c1.245,-17.436 -3.558,-27.221 -5.871,-35.228c-1.762,-6.099 -8.377,-18.703 -11.429,-24.361Zm188.943,343.835c0,0 -22.24,19.46 -35.097,27.453c-12.858,7.992 -33.012,17.722 -33.012,17.722c-0,-0 21.544,-2.78 36.834,-12.51c15.29,-9.73 22.935,-19.112 31.275,-32.665Zm-792.665,-425.69c0,0 53.167,4.865 71.932,10.425c18.765,5.56 61.507,26.758 61.507,26.758c0,-0 -30.58,-31.623 -60.117,-36.14c-29.537,-4.518 -73.322,-1.043 -73.322,-1.043Zm674.568,-49.742c0,0 -0.703,25.793 10.736,46.247c11.461,20.49 15.707,23.898 27.252,27.252c11.207,3.255 12.404,-0.656 12.388,4.955c-0.01,3.549 -3.298,4.185 -9.084,3.303c-14.761,-2.252 -21.898,-10.89 -29.73,-21.471c-7.275,-9.83 -11.091,-20.041 -13.213,-33.859c-2.606,-16.972 1.651,-26.427 1.651,-26.427Zm141.216,40.466c0,-0 20.421,22.769 47.072,20.645c0,0 5.54,8.074 5.781,17.343c-0,-0 5.043,1.776 6.606,-2.478c1.564,-4.254 -1.174,-10.985 -3.303,-15.69c-2.128,-4.706 -4.023,-7.432 -9.084,-6.607c-5.061,0.825 -8.818,0.535 -17.342,-1.652c-8.525,-2.187 -29.73,-11.561 -29.73,-11.561Zm-66.066,-57.808c-1.018,-2.731 1.699,14.285 4.129,20.646c0,-0 15.978,4.349 22.298,10.735c-0,0 -1.097,-8.778 -7.433,-13.213c-6.336,-4.434 -15.689,-9.302 -18.994,-18.168Z" style="fill:#f90018;"/></svg>