<?xml version="1.0" encoding="utf-8"?>
<!-- Generator: Adobe Illustrator 22.0.0, SVG Export Plug-In . SVG Version: 6.00 Build 0)  -->
<svg version="1.1" id="Capa_1" xmlns="http://www.w3.org/2000/svg" xmlns:xlink="http://www.w3.org/1999/xlink" x="0px" y="0px"
	 viewBox="0 0 512 512" style="enable-background:new 0 0 512 512;" xml:space="preserve">
<style type="text/css">
	.st0{display:none;}
	.st1{display:inline;}
</style>
<g>
	<g class="st0">
		<path class="st1" d="M466,392h-60c-8.3,0-15-6.7-15-15V15c0-8.3,6.7-15,15-15h60c8.3,0,15,6.7,15,15v362
			C481,385.3,474.3,392,466,392z"/>
	</g>
	<g>
		<path d="M397,392h-60c-8.3,0-15-6.7-15-15V77c0-8.3,6.7-15,15-15h60c8.3,0,15,6.7,15,15v300C412,385.3,405.3,392,397,392z"/>
	</g>
	<g>
		<path d="M277,392h-60c-8.3,0-15-6.7-15-15V137c0-8.3,6.7-15,15-15h60c8.3,0,15,6.7,15,15v240C292,385.3,285.3,392,277,392z"/>
	</g>
	<g>
		<path d="M157,392H97c-8.3,0-15-6.7-15-15V197c0-8.3,6.7-15,15-15h60c8.3,0,15,6.7,15,15v180C172,385.3,165.3,392,157,392z"/>
	</g>
	<g class="st0">
		<path class="st1" d="M241,467c0,5.1,0.5,10.1,1.5,15H15c-8.3,0-15-6.7-15-15s6.7-15,15-15h227.5C241.5,456.9,241,461.9,241,467z"
			/>
	</g>
	<g class="st0">
		<path class="st1" d="M512,467c0,8.3-6.7,15-15,15H389.5c1-4.9,1.5-9.9,1.5-15s-0.5-10.1-1.5-15H497C505.3,452,512,458.7,512,467z"
			/>
	</g>
	<g class="st0">
		<path class="st1" d="M316,512c-24.8,0-45-20.2-45-45s20.2-45,45-45s45,20.2,45,45S340.8,512,316,512z"/>
	</g>
</g>
</svg>
